<?xml version="1.0" standalone="no"?>
<!DOCTYPE svg PUBLIC "-//W3C//DTD SVG 20010904//EN"
 "http://www.w3.org/TR/2001/REC-SVG-20010904/DTD/svg10.dtd">
<svg version="1.0" xmlns="http://www.w3.org/2000/svg"
 width="500.000000pt" height="500.000000pt" viewBox="0 0 500.000000 500.000000"
 preserveAspectRatio="xMidYMid meet">

<g transform="translate(0.000000,500.000000) scale(0.100000,-0.100000)"
fill="#000000" stroke="none">
<path d="M2684 4026 c-11 -28 4 -48 33 -44 22 2 28 8 28 28 0 20 -6 26 -28 28
-18 2 -29 -2 -33 -12z"/>
<path d="M2820 3961 c0 -12 -8 -25 -17 -28 -32 -12 -44 -43 -17 -43 13 0 15
-8 8 -52 -4 -29 -7 -62 -6 -72 2 -38 45 -62 100 -57 21 2 13 31 -12 41 -34 12
-36 19 -24 73 9 44 12 48 36 45 21 -2 28 2 30 19 2 16 -3 22 -20 25 -18 2 -23
9 -21 31 1 17 -3 27 -12 27 -7 0 -20 3 -29 6 -12 4 -16 0 -16 -15z"/>
<path d="M2968 3835 l-48 -136 27 -10 c14 -5 27 -8 28 -7 1 2 10 27 21 56 23
65 44 87 79 78 38 -10 41 -32 16 -104 -12 -35 -21 -66 -19 -67 2 -2 14 -6 28
-10 24 -6 27 -2 48 63 28 87 28 107 -3 137 -18 18 -35 25 -65 25 -22 0 -40 2
-40 5 0 2 7 23 16 46 14 35 15 42 3 50 -35 22 -44 9 -91 -126z"/>
<path d="M2500 3845 l0 -105 30 0 30 0 0 68 c0 73 10 92 47 92 18 0 23 6 23
25 0 19 -5 25 -23 25 -13 0 -29 -6 -36 -12 -11 -10 -14 -10 -18 0 -3 6 -16 12
-29 12 -24 0 -24 -1 -24 -105z"/>
<path d="M2677 3923 c-3 -15 -9 -63 -12 -105 -7 -77 -7 -77 20 -84 14 -3 27
-5 29 -3 2 2 8 50 13 107 6 77 6 102 -3 102 -7 0 -19 3 -27 6 -11 4 -17 -3
-20 -23z"/>
<path d="M2295 3926 c-58 -26 -80 -72 -64 -132 26 -93 177 -98 215 -7 40 94
-56 183 -151 139z m85 -56 c24 -24 25 -48 4 -78 -17 -25 -65 -30 -82 -9 -23
27 -24 65 -3 86 26 26 55 27 81 1z"/>
<path d="M2123 3889 c-13 -4 -23 -13 -23 -19 0 -6 -10 -8 -23 -5 -57 15 -117
-37 -117 -100 0 -76 57 -118 131 -96 22 7 43 19 46 27 8 22 23 16 23 -9 0 -34
-32 -59 -85 -65 -40 -4 -46 -8 -43 -26 3 -18 9 -21 45 -19 61 3 112 30 131 70
15 32 15 37 -17 136 -18 56 -36 105 -40 108 -3 4 -16 3 -28 -2z m-5 -81 c16
-16 15 -63 -2 -77 -27 -23 -67 -18 -89 11 -19 25 -19 28 -3 52 18 28 72 36 94
14z"/>
<path d="M1815 3858 c-11 -6 -21 -12 -23 -13 -2 -2 26 -62 63 -134 63 -126 66
-131 88 -120 12 6 23 13 25 14 3 3 -126 265 -131 265 -1 0 -11 -6 -22 -12z"/>
<path d="M3211 3709 c-28 -44 -51 -84 -51 -87 0 -8 41 -35 44 -30 2 2 17 24
34 49 44 65 57 74 87 61 35 -16 32 -47 -10 -109 l-35 -52 25 -17 c14 -9 27
-15 28 -13 2 2 18 27 36 56 37 60 63 73 92 47 26 -24 24 -35 -17 -100 -34 -53
-35 -56 -17 -69 10 -8 21 -15 26 -15 15 0 87 125 87 152 0 41 -38 78 -87 85
-33 4 -43 10 -47 29 -6 23 -51 54 -78 54 -7 0 -19 9 -26 20 -7 11 -18 20 -26
20 -7 0 -36 -36 -65 -81z"/>
<path d="M1621 3721 l-24 -18 28 -147 c15 -80 30 -146 34 -146 3 0 14 7 25 15
14 11 17 22 12 48 -6 32 -4 36 49 71 54 35 56 36 81 20 21 -14 29 -15 49 -4
14 7 25 17 25 20 0 6 -198 129 -250 156 -3 1 -16 -6 -29 -15z m129 -109 c6 -4
-51 -52 -62 -52 -8 0 -28 66 -28 93 0 15 6 14 43 -10 23 -15 44 -29 47 -31z"/>
<path d="M1287 3412 c-19 -20 -27 -39 -27 -64 0 -39 11 -53 53 -63 22 -6 27
-13 27 -39 0 -42 32 -76 70 -76 39 0 87 44 104 95 10 28 21 41 36 43 30 5 24
46 -8 50 -13 2 -29 16 -38 33 -13 26 -18 29 -32 18 -9 -8 -18 -14 -20 -15 -2
-1 1 -12 8 -23 8 -16 8 -21 -2 -21 -7 0 -23 -3 -35 -6 -21 -6 -23 -3 -23 28 0
68 -65 90 -113 40z m71 -50 c4 -28 -24 -41 -44 -20 -20 20 -7 50 20 46 13 -2
22 -12 24 -26z m122 -67 c0 -18 -26 -55 -45 -63 -18 -9 -26 -7 -39 7 -23 25
-20 49 7 54 32 6 77 8 77 2z"/>
<path d="M3561 3341 c-13 -24 8 -55 34 -50 28 6 42 34 26 53 -18 22 -48 20
-60 -3z"/>
<path d="M3816 3226 c-93 -101 -96 -105 -84 -131 13 -30 13 -30 163 -9 l50 6
-67 -69 c-38 -37 -68 -73 -68 -78 0 -6 8 -20 18 -32 l17 -21 133 22 c73 13
135 25 138 29 7 6 -14 47 -24 47 -4 0 -45 -7 -92 -15 -47 -8 -89 -15 -94 -15
-5 0 22 34 59 76 62 69 67 77 56 100 -8 18 -16 23 -33 19 -33 -7 -151 -25
-168 -25 -8 0 18 33 57 73 71 71 72 72 57 100 -8 15 -16 27 -18 27 -2 0 -46
-47 -100 -104z"/>
<path d="M1184 3091 c-28 -12 -61 -55 -69 -90 -10 -45 16 -95 60 -115 72 -35
144 11 161 101 7 39 0 53 -26 46 -14 -4 -20 -14 -20 -34 0 -31 -30 -69 -55
-69 -20 0 -20 0 15 77 17 37 27 70 22 75 -13 13 -65 18 -88 9z m39 -47 c9 -9
-36 -95 -48 -91 -5 2 -11 17 -13 34 -2 23 3 35 20 47 24 17 32 19 41 10z"/>
<path d="M1062 2858 c3 -20 0 -37 -8 -43 -7 -5 -14 -19 -16 -29 -3 -17 12 -24
95 -49 54 -16 100 -27 102 -25 2 1 6 14 10 28 6 24 3 27 -43 39 -71 18 -95 37
-90 72 3 21 0 29 -16 33 -35 10 -38 7 -34 -26z"/>
<path d="M3954 2831 c-37 -16 -64 -60 -64 -105 0 -41 30 -106 50 -106 15 0 32
38 19 45 -19 12 -29 54 -19 80 16 41 27 29 46 -50 20 -85 32 -92 83 -49 27 22
31 32 31 75 0 39 -5 55 -27 79 -30 33 -82 46 -119 31z m90 -67 c19 -18 21 -55
4 -72 -19 -19 -26 -14 -33 21 -4 17 -9 40 -11 50 -7 22 19 23 40 1z"/>
<path d="M1010 2669 c0 -28 15 -39 54 -39 69 0 117 -48 85 -86 -11 -14 -26
-15 -85 -10 l-72 6 -5 -28 c-3 -15 -4 -28 -3 -29 1 -1 39 -5 84 -9 66 -6 86
-4 106 10 29 18 43 74 27 104 -8 16 -7 21 4 26 8 3 15 16 15 29 0 23 -5 25
-105 39 l-105 14 0 -27z"/>
<path d="M4140 2584 c-14 -2 -69 -6 -122 -9 l-98 -7 7 -26 c3 -15 10 -29 15
-30 5 -2 4 -10 -3 -18 -19 -24 -4 -96 26 -121 50 -44 142 -26 170 32 19 40 19
53 1 87 -16 31 -8 38 50 38 31 0 34 3 34 30 0 32 -5 33 -80 24z m-60 -84 c38
-38 12 -90 -45 -90 -37 0 -55 15 -55 49 0 55 61 80 100 41z"/>
<path d="M1163 2423 c-7 -2 -13 -15 -13 -28 0 -27 -17 -35 -76 -35 -42 0 -44
1 -44 30 0 23 -4 30 -20 30 -16 0 -20 -7 -20 -30 0 -25 -4 -30 -25 -30 -21 0
-25 -5 -25 -30 0 -25 4 -30 25 -30 16 0 25 -6 25 -15 0 -8 9 -15 20 -15 11 0
20 6 20 14 0 9 19 15 60 19 34 4 69 11 80 17 21 11 35 60 25 90 -6 20 -11 22
-32 13z"/>
<path d="M1085 2239 c-94 -17 -95 -18 -95 -45 l0 -26 74 7 c72 7 75 6 91 -18
12 -20 14 -30 6 -46 -11 -19 -24 -24 -109 -36 -41 -7 -43 -9 -37 -33 4 -15 8
-28 9 -29 5 -5 120 18 148 28 49 20 61 97 21 142 -10 10 -12 17 -5 17 7 0 12
11 12 25 0 22 -4 25 -32 24 -18 -1 -55 -5 -83 -10z"/>
<path d="M3924 2183 c-3 -15 -10 -44 -15 -63 -23 -88 2 -167 61 -197 63 -32
151 -8 182 50 17 31 48 171 40 178 -4 3 -56 16 -117 28 -60 12 -118 25 -127
27 -13 4 -19 -3 -24 -23z m119 -59 c40 -8 77 -17 84 -19 17 -5 -4 -85 -29
-112 -45 -48 -148 -14 -148 49 0 31 12 98 17 98 2 0 36 -7 76 -16z"/>
<path d="M1046 1961 c-17 -6 -16 -9 9 -39 15 -18 22 -32 15 -32 -10 0 -6 -36
6 -49 2 -2 47 9 99 25 95 29 107 39 86 72 -7 12 -18 11 -64 -4 -61 -19 -107
-10 -107 21 0 16 -14 18 -44 6z"/>
<path d="M3864 1881 c-57 -35 -85 -157 -34 -144 14 4 20 14 20 32 0 33 23 67
50 74 26 7 25 2 -9 -79 -33 -76 -30 -84 30 -84 66 0 118 65 105 133 -13 72
-100 108 -162 68z m116 -93 c0 -33 -19 -58 -44 -58 l-24 0 21 50 c16 39 24 47
34 38 7 -6 13 -19 13 -30z"/>
<path d="M1263 1859 c-7 -7 -10 -24 -7 -38 5 -23 0 -29 -42 -49 -37 -19 -49
-21 -55 -10 -5 7 -9 16 -9 21 0 9 -34 10 -43 1 -3 -4 -1 -16 5 -27 8 -16 7
-23 -11 -36 -30 -23 -18 -65 16 -56 14 3 31 1 38 -5 18 -15 47 -1 40 20 -4 13
5 21 37 35 62 27 78 44 78 80 0 41 -30 81 -47 64z"/>
<path d="M1300 1693 c-52 -19 -60 -54 -33 -140 18 -58 11 -80 -24 -69 -23 7
-53 56 -53 86 0 16 -4 20 -16 16 -9 -3 -20 -6 -26 -6 -16 0 -1 -60 26 -101 32
-48 75 -66 117 -49 43 18 53 50 34 113 -19 65 -19 86 2 94 22 9 61 -41 69 -88
5 -31 9 -35 30 -31 30 6 30 23 -1 89 -31 68 -81 102 -125 86z"/>
<path d="M3717 1630 c-16 -26 -14 -28 46 -118 34 -50 64 -91 67 -92 3 0 11 10
19 21 12 20 9 28 -29 81 -23 33 -39 62 -36 65 3 3 35 0 73 -7 65 -11 68 -11
86 12 22 26 28 24 -105 47 l-106 18 -15 -27z"/>
<path d="M3603 1470 c-32 -19 -63 -66 -63 -95 0 -9 9 -15 25 -15 18 0 25 5 25
18 0 25 41 62 68 62 28 0 28 -12 1 -36 -12 -10 -35 -36 -51 -57 -35 -44 -28
-62 28 -73 70 -13 134 42 134 115 0 24 -9 42 -34 67 -40 40 -83 45 -133 14z
m117 -95 c0 -30 -25 -55 -56 -55 -31 0 -30 5 9 50 35 40 47 42 47 5z"/>
<path d="M1508 1392 c-57 -59 -71 -86 -63 -121 10 -45 98 -114 119 -94 11 12
6 43 -7 43 -18 0 -57 42 -57 61 0 30 13 28 53 -6 22 -19 50 -35 62 -35 29 0
55 30 55 64 0 32 -40 76 -69 76 -13 0 -18 5 -15 13 2 7 -4 21 -14 30 -17 16
-21 14 -64 -31z m93 -50 c14 -12 20 -25 16 -35 -9 -24 -30 -21 -57 9 -21 21
-22 27 -10 34 21 13 25 13 51 -8z"/>
<path d="M3456 1331 c-17 -19 -15 -23 74 -125 51 -58 96 -106 100 -106 4 0 14
8 23 18 15 16 10 24 -74 122 -50 58 -94 106 -98 108 -4 1 -15 -6 -25 -17z"/>
<path d="M1696 1274 c-4 -11 1 -22 14 -31 26 -18 26 -21 -11 -71 -30 -41 -32
-42 -55 -27 -21 14 -24 14 -34 -4 -8 -16 -6 -23 12 -35 17 -12 20 -18 10 -28
-18 -18 -15 -36 9 -48 17 -9 23 -8 33 6 8 10 20 15 29 11 22 -8 43 19 28 37
-9 11 -5 24 20 59 39 56 41 93 5 124 -32 27 -51 29 -60 7z"/>
<path d="M3306 1219 c-104 -90 2 -237 124 -174 64 33 80 122 31 174 -24 26
-37 31 -75 31 -36 0 -52 -6 -80 -31z m113 -45 c12 -15 21 -33 21 -40 0 -21
-37 -54 -60 -54 -26 0 -60 34 -60 62 0 29 28 58 56 58 12 0 32 -12 43 -26z"/>
<path d="M3138 1213 c-22 -5 -22 -5 -3 -50 20 -48 20 -50 -14 -51 -95 -2 -132
-113 -61 -184 36 -36 94 -39 136 -6 15 13 33 23 39 24 5 0 18 2 28 2 9 1 17 8
17 15 0 23 -105 257 -115 256 -5 -1 -18 -3 -27 -6z m28 -151 c13 -8 34 -46 34
-61 0 -18 -39 -51 -60 -51 -24 0 -60 38 -60 64 0 41 53 71 86 48z"/>
<path d="M1815 1128 c-19 -40 -35 -79 -35 -88 0 -27 31 -62 74 -81 57 -26 76
-25 76 6 0 19 -5 25 -23 25 -31 0 -67 27 -67 51 0 23 -3 23 55 -2 55 -24 91
-19 107 16 8 19 8 31 0 51 -13 28 -72 57 -97 48 -10 -4 -14 -2 -10 8 4 9 -4
19 -20 26 -25 12 -27 10 -60 -60z m119 -14 c17 -7 22 -39 6 -49 -5 -3 -26 1
-46 10 -31 13 -34 17 -24 30 13 16 38 19 64 9z"/>
<path d="M2053 1039 c-31 -20 -63 -80 -63 -120 0 -27 23 -69 52 -96 18 -16
178 -77 184 -70 3 3 74 256 74 261 0 10 -138 46 -176 46 -22 0 -53 -9 -71 -21z
m140 -40 c42 -11 41 -7 7 -117 -17 -53 -20 -57 -46 -54 -96 11 -136 107 -67
162 29 23 51 25 106 9z"/>
<path d="M2834 1026 c-42 -18 -50 -34 -28 -51 16 -11 22 -11 35 1 21 19 76 21
92 5 17 -17 -3 -27 -80 -41 -69 -13 -77 -26 -47 -69 23 -33 75 -52 110 -42 54
16 65 23 79 52 54 103 -47 194 -161 145z m114 -118 c-6 -41 -82 -50 -95 -11
-3 8 46 25 90 32 5 0 7 -9 5 -21z"/>
<path d="M2452 998 c-30 -30 0 -78 37 -58 32 17 21 70 -14 70 -6 0 -16 -5 -23
-12z"/>
<path d="M2686 945 c6 -55 4 -69 -11 -85 -10 -11 -26 -20 -35 -20 -13 0 -16
-6 -12 -25 5 -29 18 -31 50 -9 12 8 22 10 22 5 0 -6 14 -11 30 -11 29 0 30 1
25 38 -2 20 -7 67 -11 105 -6 66 -6 67 -35 67 l-30 0 7 -65z"/>
</g>
</svg>
