<svg version="1.1" id="Layer_1" xmlns="http://www.w3.org/2000/svg" xmlns:xlink="http://www.w3.org/1999/xlink" x="0px" y="0px"
	 width="100%" viewBox="0 0 500 500" enable-background="new 0 0 500 500" xml:space="preserve">
<path fill="#000000" opacity="1.000000" stroke="none" 
	d="
M492.054932,501.000000 
	C328.047272,501.000000 164.548782,501.000000 1.025139,501.000000 
	C1.025139,334.351624 1.025139,167.703247 1.025139,1.027434 
	C167.646851,1.027434 334.293701,1.027434 500.970276,1.027434 
	C500.970276,167.645309 500.970276,334.290619 500.970276,501.000000 
	C498.188171,501.000000 495.376160,501.000000 492.054932,501.000000 
M358.085205,386.254639 
	C358.085205,386.254639 358.312622,386.114929 358.312622,386.114929 
	C358.312622,386.114929 358.144043,385.888092 358.137787,385.614227 
	C357.938812,385.585327 357.739807,385.556427 357.540833,385.527557 
	C357.687531,385.737518 357.834229,385.947449 358.085205,386.254639 
M351.060638,378.205170 
	C351.060638,378.205170 351.361786,378.028809 351.361786,378.028809 
	C351.361786,378.028809 351.104706,377.754578 351.113892,377.443573 
	C350.881042,377.416840 350.648163,377.390137 350.415314,377.363403 
	C350.581818,377.596313 350.748322,377.829254 351.060638,378.205170 
M97.284241,270.711639 
	C97.577225,270.799255 97.870209,270.886871 98.163193,270.974487 
	C98.150230,270.744171 98.137260,270.513824 98.124290,270.283508 
	C97.836739,270.356384 97.549187,270.429260 97.284241,270.711639 
M356.220947,169.523270 
	C356.446472,169.444275 356.671997,169.365280 356.897522,169.286301 
	C356.772217,169.053772 356.646912,168.821243 356.521637,168.588699 
	C356.377686,168.808945 356.233704,169.029205 356.220947,169.523270 
M101.845573,259.597534 
	C101.941132,259.499115 102.036697,259.400696 102.132271,259.302277 
	C102.026054,259.357544 101.919838,259.412811 101.845573,259.597534 
M120.498886,263.545288 
	C120.498886,263.545288 120.451157,263.514465 120.498886,263.545288 
M367.029053,389.603516 
	C367.202942,389.468781 367.376801,389.334076 367.550690,389.199371 
	C367.471222,389.106903 367.391754,389.014435 367.312256,388.921967 
	C367.151733,389.079773 366.991241,389.237579 367.029053,389.603516 
M345.411499,370.948547 
	C345.411499,370.948547 345.562592,371.161835 345.562592,371.161835 
	C345.562592,371.161835 345.545593,370.895264 345.411499,370.948547 
M117.512428,269.534973 
	C117.512428,269.534973 117.492477,269.481110 117.512428,269.534973 
z"/>
<path fill="#050505" opacity="1.000000" stroke="none" 
	d="
M97.272934,270.606873 
	C97.549187,270.429260 97.836739,270.356384 98.124290,270.283508 
	C98.137260,270.513824 98.150230,270.744171 98.163193,270.974487 
	C97.870209,270.886871 97.577225,270.799255 97.272934,270.606873 
z"/>
<path fill="#0E0E0E" opacity="1.000000" stroke="none" 
	d="
M356.155334,169.386353 
	C356.233704,169.029205 356.377686,168.808945 356.521637,168.588699 
	C356.646912,168.821243 356.772217,169.053772 356.897522,169.286285 
	C356.671997,169.365280 356.446472,169.444275 356.155334,169.386353 
z"/>
<path fill="#050505" opacity="1.000000" stroke="none" 
	d="
M101.829597,259.532806 
	C101.919838,259.412811 102.026054,259.357544 102.132263,259.302277 
	C102.036697,259.400696 101.941132,259.499115 101.829597,259.532806 
z"/>
<path fill="#050505" opacity="1.000000" stroke="none" 
	d="
M120.475021,263.529877 
	C120.451157,263.514465 120.498886,263.545288 120.475021,263.529877 
z"/>
<path fill="#0D0D0D" opacity="1.000000" stroke="none" 
	d="
M366.929871,389.499451 
	C366.991241,389.237579 367.151733,389.079773 367.312256,388.921967 
	C367.391754,389.014435 367.471222,389.106903 367.550659,389.199341 
	C367.376801,389.334076 367.202942,389.468781 366.929871,389.499451 
z"/>
<path fill="#0D0D0D" opacity="1.000000" stroke="none" 
	d="
M345.478546,370.921906 
	C345.545593,370.895264 345.562592,371.161835 345.562592,371.161835 
	C345.562592,371.161835 345.411499,370.948547 345.478546,370.921906 
z"/>
<path fill="#0D0D0D" opacity="1.000000" stroke="none" 
	d="
M350.914825,378.062164 
	C350.748322,377.829254 350.581818,377.596313 350.415314,377.363403 
	C350.648163,377.390137 350.881042,377.416840 351.065857,377.678467 
	C351.017792,377.913330 350.914825,378.062164 350.914825,378.062164 
z"/>
<path fill="#0D0D0D" opacity="1.000000" stroke="none" 
	d="
M357.980957,386.157410 
	C357.834229,385.947449 357.687531,385.737518 357.540833,385.527527 
	C357.739807,385.556427 357.938812,385.585327 358.100708,385.818848 
	C358.063629,386.023438 357.980957,386.157410 357.980957,386.157410 
z"/>
<path fill="#050505" opacity="1.000000" stroke="none" 
	d="
M117.502457,269.508057 
	C117.492477,269.481110 117.512428,269.534973 117.502457,269.508057 
z"/>
<path fill="#0D0D0D" opacity="1.000000" stroke="none" 
	d="
M351.061249,377.833954 
	C351.104706,377.754578 351.361786,378.028809 351.361786,378.028809 
	C351.361786,378.028809 351.060638,378.205170 350.987732,378.133667 
	C350.914825,378.062164 351.017792,377.913330 351.061249,377.833954 
z"/>
<path fill="#0D0D0D" opacity="1.000000" stroke="none" 
	d="
M358.103821,385.955750 
	C358.144043,385.888092 358.312622,386.114929 358.312622,386.114929 
	C358.312622,386.114929 358.085205,386.254639 358.033081,386.206024 
	C357.980957,386.157410 358.063629,386.023438 358.103821,385.955750 
z"/>
</svg>