<?xml version="1.0" standalone="no"?>
<!DOCTYPE svg PUBLIC "-//W3C//DTD SVG 20010904//EN"
 "http://www.w3.org/TR/2001/REC-SVG-20010904/DTD/svg10.dtd">
<svg version="1.0" xmlns="http://www.w3.org/2000/svg"
 width="500.000000pt" height="500.000000pt" viewBox="0 0 500.000000 500.000000"
 preserveAspectRatio="xMidYMid meet">

<g transform="translate(0.000000,500.000000) scale(0.100000,-0.100000)"
fill="#000000" stroke="none">
<path d="M2672 4878 c-19 -19 -14 -56 9 -68 46 -25 96 12 78 58 -6 17 -16 22
-42 22 -18 0 -38 -5 -45 -12z"/>
<path d="M2866 4785 c-3 -9 -6 -25 -6 -35 0 -13 -9 -20 -27 -22 -37 -4 -46
-52 -12 -61 18 -5 20 -11 15 -34 -3 -15 -9 -60 -12 -99 -7 -70 -6 -70 25 -97
26 -21 43 -27 82 -27 36 0 49 4 49 14 0 29 -13 46 -35 46 -41 0 -49 22 -35 97
7 38 14 71 16 74 2 4 19 3 38 -1 36 -8 46 0 46 40 0 12 -10 20 -35 24 -35 7
-35 8 -29 46 6 35 4 40 -12 40 -11 0 -29 3 -40 6 -14 4 -23 0 -28 -11z"/>
<path d="M3077 4597 c-37 -105 -67 -195 -67 -199 0 -6 55 -28 70 -28 4 0 20
35 35 78 26 75 61 122 90 122 29 0 66 -24 71 -46 3 -13 -6 -59 -22 -106 -16
-46 -29 -87 -29 -92 0 -5 17 -15 38 -22 29 -10 39 -11 42 -1 33 87 65 197 65
219 0 18 -12 41 -34 65 -30 33 -39 37 -94 41 l-60 4 19 56 c10 30 19 61 19 68
0 10 -49 34 -69 34 -3 0 -36 -87 -74 -193z"/>
<path d="M2403 4608 c4 -83 8 -152 10 -153 1 -1 18 0 39 2 l36 5 4 95 c3 103
11 118 71 130 23 5 27 10 27 39 0 39 -20 45 -70 19 -27 -14 -30 -14 -30 0 0
11 -11 15 -47 15 l-46 0 6 -152z"/>
<path d="M2660 4744 c0 -16 -19 -224 -24 -261 -5 -33 -5 -33 40 -33 39 0 44 3
45 23 0 12 6 79 12 149 l13 126 -43 4 c-26 2 -43 -1 -43 -8z"/>
<path d="M2100 4718 c-57 -30 -82 -65 -87 -125 -8 -96 56 -163 156 -163 105 0
171 59 171 155 0 125 -123 192 -240 133z m129 -72 c54 -58 26 -146 -47 -146
-52 0 -82 32 -82 86 0 34 5 47 26 63 35 28 75 27 103 -3z"/>
<path d="M1862 4674 c-19 -8 -32 -20 -29 -27 3 -9 -12 -12 -54 -12 -62 0 -94
-17 -133 -68 -24 -33 -26 -100 -2 -145 46 -89 190 -99 250 -16 14 18 15 18 21
-9 16 -62 -39 -107 -129 -107 -46 0 -56 -10 -56 -52 0 -19 4 -20 68 -16 122 9
202 70 202 155 0 35 -89 314 -100 312 -3 0 -20 -7 -38 -15z m-11 -123 c16 -16
29 -39 29 -50 0 -32 -41 -71 -82 -78 -67 -10 -111 60 -72 115 33 48 84 53 125
13z"/>
<path d="M1425 4623 c-16 -8 -31 -17 -33 -18 -3 -2 175 -364 183 -373 3 -3 65
26 75 35 5 5 -182 373 -190 372 -3 0 -18 -7 -35 -16z"/>
<path d="M3454 4453 c-31 -49 -68 -106 -82 -127 l-25 -40 29 -23 c16 -13 32
-23 36 -23 4 0 24 26 44 58 70 111 111 135 154 92 32 -32 25 -58 -49 -169 -34
-52 -35 -53 -16 -68 50 -37 50 -37 105 46 28 44 58 82 67 85 46 18 93 -9 93
-53 0 -12 -22 -57 -50 -100 -27 -43 -50 -80 -50 -82 0 -7 70 -43 74 -38 2 2
29 44 60 93 69 110 73 147 23 203 -29 31 -41 37 -89 41 -52 4 -55 6 -67 38
-15 40 -58 73 -106 81 -21 3 -34 11 -32 17 3 7 -10 22 -29 34 l-34 22 -56 -87z"/>
<path d="M1143 4427 c-18 -12 -31 -26 -29 -32 2 -5 20 -101 41 -212 22 -112
41 -203 44 -203 3 0 21 13 39 28 30 26 32 29 22 65 -6 20 -8 41 -5 46 4 8 104
81 141 103 6 4 27 -4 48 -18 l37 -26 35 24 c18 13 34 26 34 29 0 8 -353 219
-365 218 -6 0 -25 -10 -42 -22z m156 -131 l43 -28 -48 -34 c-26 -19 -51 -34
-55 -34 -6 0 -39 127 -39 152 0 5 12 1 28 -10 15 -11 47 -31 71 -46z"/>
<path d="M692 4010 c-20 -13 -41 -38 -53 -66 -17 -38 -19 -50 -9 -80 12 -36
55 -64 97 -64 15 0 18 -9 19 -52 0 -44 5 -55 32 -80 22 -19 43 -28 66 -28 65
0 153 86 163 159 5 33 10 41 27 41 34 0 44 13 39 47 -5 29 -7 31 -37 26 -28
-4 -33 0 -51 33 -24 45 -33 49 -64 25 -22 -17 -23 -19 -7 -43 16 -25 16 -26
-6 -32 -13 -3 -35 -6 -50 -6 -26 0 -28 3 -28 45 0 84 -66 119 -138 75z m72
-66 c9 -24 7 -62 -4 -69 -16 -10 -59 6 -65 26 -14 43 53 85 69 43z m186 -119
c0 -20 -32 -75 -51 -89 -45 -31 -89 -9 -89 44 0 26 4 30 38 35 20 4 44 8 52
10 26 5 50 5 50 0z"/>
<path d="M3942 3904 c-41 -29 -19 -94 33 -94 24 0 55 33 55 57 0 7 -9 22 -20
33 -24 24 -38 25 -68 4z"/>
<path d="M4292 3719 l-143 -147 21 -41 c12 -24 27 -41 38 -41 9 0 71 9 136 20
66 11 121 18 123 16 2 -2 -40 -49 -92 -104 l-97 -102 24 -41 c19 -34 27 -40
48 -36 14 3 102 17 195 32 94 16 174 31 178 35 11 10 -20 70 -36 70 -6 0 -64
-9 -127 -20 -63 -11 -124 -20 -134 -20 -14 0 9 30 82 104 l103 104 -17 36
c-10 20 -25 36 -33 36 -9 0 -70 -9 -136 -20 -66 -11 -127 -20 -135 -20 -8 0
32 47 89 104 104 104 104 105 91 135 -6 17 -17 34 -24 39 -7 6 -59 -41 -154
-139z"/>
<path d="M515 3526 c-116 -52 -129 -221 -23 -286 46 -28 122 -27 165 3 46 31
83 103 83 161 0 48 -4 51 -47 40 -19 -5 -23 -13 -23 -44 0 -47 -40 -100 -76
-100 -13 0 -24 2 -24 5 0 3 20 49 45 102 25 53 45 100 45 104 0 9 -66 29 -95
29 -11 -1 -33 -7 -50 -14z m59 -88 c-3 -13 -18 -45 -31 -71 -19 -38 -27 -46
-38 -37 -22 18 -27 58 -10 89 16 32 28 39 63 40 20 1 22 -3 16 -21z"/>
<path d="M344 3215 c-3 -13 -1 -38 5 -55 9 -28 8 -31 -8 -25 -14 4 -20 -3 -29
-32 -6 -20 -10 -39 -8 -41 6 -5 268 -82 281 -82 6 0 16 17 21 39 l11 38 -87
26 c-48 15 -93 34 -101 43 -7 9 -12 33 -12 55 2 42 1 43 -39 53 -24 5 -28 3
-34 -19z"/>
<path d="M4475 3141 c-50 -30 -68 -58 -73 -110 -7 -72 5 -117 40 -157 l32 -36
18 24 c22 29 22 34 -2 60 -20 22 -25 42 -21 88 2 24 30 64 39 56 2 -3 16 -53
31 -113 26 -102 29 -108 52 -105 54 6 109 69 116 133 6 56 -28 124 -76 156
-43 29 -114 31 -156 4z m145 -83 c27 -29 27 -89 0 -113 -11 -10 -22 -16 -24
-14 -3 4 -36 134 -36 144 0 14 42 2 60 -17z"/>
<path d="M270 2926 c0 -20 -1 -39 -2 -43 -2 -5 35 -14 82 -21 47 -7 95 -19
107 -28 44 -28 38 -95 -10 -113 -13 -5 -59 -3 -112 5 -49 7 -90 12 -91 11 -1
-1 -4 -21 -7 -43 l-5 -42 87 -11 c118 -15 148 -14 182 6 28 17 59 76 59 114 0
11 -7 33 -15 49 -15 28 -14 30 4 30 15 0 20 8 23 39 l3 39 -130 17 c-71 9
-140 19 -152 22 -21 5 -23 1 -23 -31z"/>
<path d="M4670 2795 c-91 -7 -177 -13 -192 -14 -26 -1 -28 -4 -28 -41 0 -29 4
-40 15 -40 18 0 19 -12 4 -27 -6 -6 -11 -34 -11 -62 0 -92 60 -151 154 -151
61 0 109 28 136 80 27 54 28 84 4 132 l-19 36 30 6 c16 3 47 6 68 6 l39 0 0
45 c0 37 -3 45 -17 44 -10 -1 -92 -8 -183 -14z m8 -121 c38 -43 24 -96 -32
-119 -104 -44 -176 95 -74 140 41 18 77 11 106 -21z"/>
<path d="M481 2571 c-8 -5 -15 -25 -15 -43 l-1 -33 -75 -6 c-41 -3 -78 -4 -82
-2 -5 2 -8 20 -8 39 0 31 -3 34 -29 34 -27 0 -30 -3 -33 -37 -3 -36 -5 -38
-40 -41 -37 -3 -38 -4 -38 -43 0 -39 0 -39 40 -39 36 0 40 -2 40 -25 0 -21 5
-25 30 -25 25 0 30 4 30 25 0 25 1 25 80 25 43 0 90 5 104 11 37 17 59 72 51
125 -6 45 -22 55 -54 35z"/>
<path d="M378 2306 c-71 -13 -131 -25 -134 -29 -4 -3 -3 -23 0 -43 7 -36 8
-36 44 -30 96 17 162 19 178 5 26 -21 35 -56 22 -84 -12 -28 -47 -40 -139 -51
-31 -4 -61 -9 -66 -13 -6 -3 -8 -23 -5 -45 l4 -38 47 6 c147 20 176 29 208 61
27 27 33 41 33 75 0 43 -25 110 -41 110 -5 0 -9 5 -9 10 0 6 7 10 16 10 12 0
15 6 10 23 -3 12 -6 30 -6 40 0 21 -1 21 -162 -7z"/>
<path d="M4432 2153 c-25 -122 -26 -134 -12 -185 42 -149 261 -187 345 -59 24
36 57 145 70 232 l6 44 -178 38 c-98 20 -185 37 -193 37 -12 0 -21 -27 -38
-107z m200 -14 c57 -12 107 -26 112 -30 6 -5 4 -31 -4 -66 -23 -106 -93 -147
-185 -109 -50 21 -69 65 -62 143 7 66 12 83 27 83 5 0 56 -10 112 -21z"/>
<path d="M322 1910 c-20 -8 -21 -13 -11 -32 6 -13 23 -33 37 -45 22 -18 23
-23 10 -23 -10 0 -18 -4 -18 -9 0 -17 22 -71 30 -71 14 0 265 82 272 89 11 10
-14 82 -26 78 -6 -3 -43 -15 -82 -27 -84 -27 -118 -22 -142 20 -18 31 -32 35
-70 20z"/>
<path d="M4390 1809 c-64 -27 -110 -101 -110 -179 0 -52 4 -55 46 -44 17 5 21
13 21 46 0 46 28 89 66 102 15 6 29 7 32 4 3 -2 -15 -52 -40 -109 -42 -96 -45
-105 -28 -116 27 -20 111 -16 149 7 40 25 74 92 74 147 0 44 -28 94 -71 126
-31 23 -103 31 -139 16z m128 -111 c7 -7 12 -29 12 -49 0 -29 -6 -43 -26 -58
-28 -22 -64 -28 -64 -12 0 16 52 131 59 131 4 0 12 -5 19 -12z"/>
<path d="M627 1762 c-14 -15 -15 -23 -5 -50 15 -40 6 -51 -74 -86 l-58 -26
-14 35 c-14 33 -16 34 -45 24 -35 -12 -36 -14 -16 -49 20 -34 19 -36 -15 -50
-34 -14 -34 -15 -19 -59 12 -35 17 -36 55 -19 22 10 28 10 40 -6 9 -13 20 -17
39 -12 23 6 26 11 21 34 -6 26 -2 29 69 61 86 38 111 70 102 128 -6 33 -42 93
-56 93 -4 0 -15 -8 -24 -18z"/>
<path d="M680 1523 c-29 -11 -60 -47 -65 -77 -4 -20 3 -61 20 -115 24 -74 25
-85 12 -99 -36 -35 -101 23 -114 103 -4 28 -10 35 -27 34 -49 -1 -54 -10 -41
-62 27 -107 122 -188 194 -167 77 22 94 72 62 179 -25 81 -26 104 -7 120 32
27 89 -35 109 -119 11 -48 13 -51 42 -48 22 2 31 9 33 26 6 37 -26 116 -64
161 -53 61 -104 82 -154 64z"/>
<path d="M4150 1433 l-21 -36 88 -130 c48 -71 91 -131 94 -133 4 -2 16 10 27
28 l20 32 -63 93 c-35 52 -58 93 -50 93 11 0 111 -18 191 -35 16 -3 26 5 42
33 l21 38 -157 27 c-86 15 -160 27 -164 27 -3 0 -16 -17 -28 -37z"/>
<path d="M4025 1228 c-42 -15 -94 -65 -116 -113 -26 -56 -24 -65 14 -65 29 0
35 5 46 35 6 19 25 44 41 55 27 20 70 27 83 13 4 -3 -27 -43 -68 -88 -41 -46
-75 -88 -75 -93 0 -6 15 -20 34 -31 47 -29 122 -28 167 2 37 24 79 97 79 137
0 49 -42 113 -90 138 -48 24 -69 26 -115 10z m131 -142 c7 -28 -18 -81 -41
-90 -25 -9 -75 -7 -75 3 0 12 90 111 101 111 5 0 11 -11 15 -24z"/>
<path d="M965 1074 l-77 -87 5 -51 c4 -45 10 -55 56 -97 28 -26 64 -50 81 -54
36 -8 35 -8 44 26 5 22 2 28 -18 33 -32 8 -86 60 -86 83 0 10 5 25 10 33 8 12
15 10 42 -16 75 -71 135 -85 176 -41 36 39 30 91 -17 138 -25 25 -48 39 -65
39 -19 0 -24 4 -19 16 5 14 -31 64 -48 64 -4 0 -42 -39 -84 -86z m145 -44 c33
-18 44 -49 25 -70 -20 -23 -45 -16 -81 21 -23 24 -25 31 -14 44 14 17 43 19
70 5z"/>
<path d="M3777 1005 l-28 -25 137 -159 137 -160 34 26 c29 22 32 28 20 42
-100 119 -260 301 -265 301 -4 0 -20 -12 -35 -25z"/>
<path d="M1256 934 c-11 -28 -7 -54 9 -54 8 0 19 -9 25 -21 10 -17 6 -29 -26
-75 -21 -31 -42 -58 -46 -60 -4 -3 -22 3 -39 13 -30 18 -30 18 -49 -7 -21 -27
-18 -33 29 -59 11 -7 10 -14 -5 -40 l-19 -33 30 -24 c17 -13 32 -24 35 -24 3
0 14 14 24 31 17 28 19 29 40 15 21 -13 24 -12 40 15 15 26 16 30 2 35 -23 9
-20 18 29 91 48 70 56 107 29 148 -30 46 -97 77 -108 49z"/>
<path d="M3605 874 c-98 -51 -131 -143 -80 -229 64 -111 227 -96 291 27 32 62
7 153 -56 196 -39 26 -110 30 -155 6z m90 -66 c30 -14 55 -55 55 -92 0 -28
-51 -76 -82 -76 -28 0 -88 63 -88 92 0 30 25 67 54 78 29 12 31 12 61 -2z"/>
<path d="M3328 834 c-16 -8 -28 -18 -28 -23 0 -5 11 -33 24 -63 l24 -55 -41 0
c-85 0 -147 -59 -147 -141 0 -83 53 -154 126 -168 48 -9 122 20 142 56 14 24
18 26 27 13 10 -14 15 -14 43 1 18 9 32 20 32 24 0 19 -156 372 -165 371 -5 0
-22 -7 -37 -15z m44 -221 c44 -51 46 -95 6 -133 -39 -36 -96 -22 -123 30 -21
41 -19 67 10 95 29 30 84 34 107 8z"/>
<path d="M1426 720 c-54 -102 -61 -155 -29 -198 25 -34 99 -72 152 -79 l41 -6
0 35 c0 34 -2 36 -41 41 -48 6 -89 41 -89 74 0 29 9 29 70 -2 64 -33 113 -33
145 0 32 32 32 75 0 113 -30 36 -75 56 -115 50 -25 -4 -29 -2 -25 13 4 13 -3
22 -24 33 -17 9 -32 16 -34 16 -2 0 -25 -40 -51 -90z m178 -39 c22 -24 13 -61
-15 -61 -11 0 -38 9 -60 21 -39 20 -40 21 -23 40 23 25 75 25 98 0z"/>
<path d="M1805 608 c-80 -29 -125 -96 -125 -187 0 -65 28 -120 79 -155 43 -29
240 -92 251 -80 12 13 114 363 108 370 -3 3 -52 18 -108 35 -108 30 -155 34
-205 17z m187 -86 l26 -11 -35 -118 c-19 -65 -36 -119 -37 -120 -1 -2 -30 6
-64 18 -77 26 -112 64 -112 120 0 47 20 91 52 114 25 18 120 16 170 -3z"/>
<path d="M2907 575 c-36 -12 -87 -51 -87 -65 0 -3 13 -13 28 -22 27 -16 29
-16 48 3 29 28 87 36 119 15 14 -9 25 -20 25 -25 0 -5 -33 -17 -72 -26 -152
-34 -151 -33 -143 -63 33 -136 233 -154 295 -27 25 52 25 88 -1 141 -35 73
-123 101 -212 69z m153 -170 c0 -26 -47 -65 -77 -65 -33 0 -76 27 -70 43 2 6
26 16 53 23 71 17 94 17 94 -1z"/>
<path d="M2324 515 c-33 -50 20 -104 71 -71 30 20 33 56 7 79 -27 24 -59 21
-78 -8z"/>
<path d="M2672 439 c3 -95 2 -102 -21 -120 -13 -10 -34 -19 -48 -19 -21 0 -24
-4 -19 -22 3 -13 6 -31 6 -42 0 -15 5 -17 28 -11 15 3 37 15 48 26 21 19 22
19 26 2 4 -15 13 -18 44 -15 l40 4 -13 136 c-6 76 -12 143 -13 150 0 7 -15 12
-40 12 l-41 0 3 -101z"/>
</g>
</svg>
